<?xml version="1.0" encoding="utf-8"?>
<!-- Generator: Adobe Illustrator 24.0.1, SVG Export Plug-In . SVG Version: 6.00 Build 0)  -->
<svg
	version="1.1"
	xmlns="http://www.w3.org/2000/svg"
	xmlns:xlink="http://www.w3.org/1999/xlink"
	viewBox="0 0 924 409"
	xml:space="preserve"
>
	<g>
		<g>
			<path
				d="M565.62,114.11v15.12c-3.22,0-6.26,0.6-9.08,1.74c-9.11,3.64-14.74,12.87-14.74,22.67v39.56h-15.47v-42.6
			c0-1.3,0.08-2.57,0.3-3.84c1.78-10.05,7.33-18.78,15.17-24.67C548.44,117.08,556.67,114.11,565.62,114.11"
			/>
			<path
				d="M487.9,113.86l-17.84,61.51c-1.51,5.28-4.71,9.75-8.9,12.87c-4.16,3.15-9.33,4.96-14.84,4.96
			c-10.98,0-20.65-7.26-23.72-17.83l-17.83-61.51h16.09l16.58,57.19c0.58,1.97,1.78,3.67,3.32,4.84c1.58,1.17,3.52,1.85,5.59,1.85
			c4.12,0,7.74-2.72,8.88-6.69l16.59-57.19H487.9z"
			/>
			<rect x="499.35" y="113.7" width="15.47" height="79.5" />
			<rect x="639.97" y="218.43" width="15.46" height="79.48" />
			<rect x="814.86" y="99" width="15.46" height="94.2" />
			<rect x="591.81" y="99" width="15.47" height="94.2" />
			<rect x="577.18" y="113.7" width="44.72" height="15.46" />
			<rect x="598.32" y="203.74" width="15.46" height="94.2" />
			<rect x="583.69" y="218.43" width="44.73" height="15.46" />
			<path
				d="M706.6,218.85c-21.88,0-39.61,17.73-39.61,39.61c0,21.88,17.73,39.61,39.61,39.61c21.9,0,39.63-17.73,39.63-39.61
			C746.23,236.58,728.49,218.85,706.6,218.85 M706.6,282.92c-13.52,0-24.47-10.95-24.47-24.47c0-13.52,10.95-24.47,24.47-24.47
			c13.52,0,24.49,10.95,24.49,24.47C731.09,271.97,720.11,282.92,706.6,282.92"
			/>
			<path
				d="M787.84,122.21c-6.69-5.16-15.04-8.23-24.14-8.23c-21.87,0-39.61,17.74-39.61,39.61s17.73,39.61,39.61,39.61
			c9.1,0,17.46-3.07,24.14-8.23v8.23h15.46v-39.61C803.3,140.82,797.25,129.45,787.84,122.21 M788.14,154.57v0.2
			c-0.02,1-0.15,1.99-0.3,2.94c-1.97,11.57-12.02,20.35-24.14,20.35c-10.18,0-18.93-6.21-22.57-15.09c-0.27-0.65-0.52-1.3-0.72-1.97
			c-0.17-0.47-0.3-0.95-0.42-1.45c-0.2-0.75-0.35-1.52-0.47-2.32c-0.08-0.4-0.12-0.8-0.15-1.2c-0.05-0.4-0.08-0.8-0.1-1.2
			c-0.02-0.4-0.02-0.83-0.02-1.25c0-13.52,10.95-24.49,24.47-24.49c12.07,0,22.07,8.7,24.12,20.2c0,0.05,0.02,0.1,0.02,0.15
			c0.1,0.62,0.18,1.25,0.23,1.9c0.02,0.1,0.02,0.22,0.02,0.32c0.03,0.28,0.05,0.55,0.05,0.83c0.03,0.22,0.03,0.45,0.03,0.7
			c0.02,0.12,0.02,0.25,0.02,0.4C788.19,153.92,788.19,154.24,788.14,154.57"
			/>
			<path
				d="M563.38,226.95c-6.69-5.16-15.04-8.23-24.15-8.23c-21.87,0-39.61,17.76-39.61,39.63c0,21.88,17.74,39.59,39.61,39.59
			c9.11,0,17.46-3.07,24.15-8.23v8.23h15.46v-39.59C578.84,245.56,572.78,234.21,563.38,226.95 M563.38,262.44
			c-1.97,11.57-12.02,20.35-24.15,20.35c-13.52,0-24.47-10.95-24.47-24.44c0-13.54,10.95-24.52,24.47-24.52
			c12.12,0,22.18,8.83,24.15,20.35c0.23,1.35,0.35,2.77,0.35,4.16C563.73,259.73,563.6,261.12,563.38,262.44"
			/>
			<path
				d="M712.53,113.73v39.86c0,12.79-6.06,24.17-15.46,31.38c-5.66,4.39-12.54,7.26-20.05,8.01c-1.35,0.15-2.72,0.22-4.09,0.22
			c-1.4,0-2.77-0.08-4.14-0.22c-7.38-0.75-14.16-3.57-19.78-7.83c-6.06-4.59-10.75-10.88-13.37-18.13c-1.52-4.24-2.1-8.75-2.1-13.25
			v-40.03H649v39.88c0,9.13,4.84,17.86,13.04,21.93c3.27,1.62,6.96,2.55,10.88,2.55c7.44,0,14.07-3.32,18.56-8.56
			c3.79-4.41,5.59-10.2,5.59-16.01v-39.78H712.53z"
			/>
			<path
				d="M834.68,244.49c-2.62-7.28-7.31-13.57-13.37-18.16c-6.64-5.06-14.95-8.06-23.92-8.06c-9.08,0-17.46,3.07-24.15,8.23
			c-9.4,7.21-15.46,18.58-15.46,31.38v33.2v6.29v0.39h15.46v-0.39h0v-39.41c0-5.81,1.8-11.6,5.59-16.01
			c4.49-5.24,11.15-8.56,18.56-8.56c3.91,0,7.61,0.92,10.9,2.55c8.18,4.06,13.02,12.79,13.02,21.92v39.51v0.39h15.46v-0.39v-6.29
			v-33.37C836.78,253.22,836.2,248.7,834.68,244.49"
			/>
			<path
				d="M485.98,244.67c-2.62-7.28-7.31-13.57-13.37-18.16c-6.64-5.06-14.94-8.06-23.92-8.06c-9.08,0-17.46,3.07-24.14,8.23
			c-9.4,7.21-15.46,18.58-15.46,31.38v33.2v6.28v0.39h15.46v-0.39l0,0v-39.41c0-5.81,1.8-11.6,5.59-16.01
			c4.49-5.24,11.15-8.56,18.56-8.56c3.92,0,7.61,0.92,10.9,2.55c8.18,4.06,13.02,12.79,13.02,21.92v39.51v0.39h15.46v-0.39v-6.28
			v-33.38C488.08,253.4,487.5,248.88,485.98,244.67"
			/>
			<g class="st0">
				<g>
					<path
						d="M787.82,149.3c-2.05-11.5-12.05-20.2-24.12-20.2c-13.52,0-24.47,10.97-24.47,24.49c0,0.42,0,0.85,0.02,1.25
					c-0.02-0.47-0.05-0.92-0.05-1.4c0-13.52,10.98-24.47,24.5-24.47C775.79,128.97,785.85,137.76,787.82,149.3"
					/>
				</g>
			</g>
		</g>
		<g>
			<path
				d="M202.37,160.26l-13.04-26.07c-1.54-3.08-5.92-3.1-7.49-0.03l-13.58,26.54c-0.61,1.19-0.61,2.59-0.02,3.79l31.29,62.58
			c1.55,3.09,5.96,3.09,7.51,0l29.2-58.41c1.39-2.79-0.63-6.07-3.75-6.07h-26.38C204.54,162.58,203.08,161.68,202.37,160.26z"
			/>
			<path
				d="M250.51,170.09l-29.2,58.41c-1.39,2.79,0.63,6.07,3.75,6.07h26.92c1.59,0,3.04,0.9,3.75,2.32l12.86,25.72
			c1.55,3.1,5.97,3.09,7.51-0.01l13.1-26.41c0.58-1.18,0.58-2.56-0.01-3.74l-31.18-62.36C256.47,166.99,252.05,166.99,250.51,170.09
			z"
			/>
		</g>
		<g>
			<path
				d="M314.54,114.92c23.07,0,41.84,18.77,41.84,41.84v82.32c0,23.07-18.77,41.84-41.84,41.84H182.24h-0.75l-0.74,0.07
			c-17.43,1.63-27.25,14.93-34.41,24.63c-2.72,3.68-5.29,7.16-7.51,9.09c-2.8,2.43-5.79,4.54-8.86,6.29
			c1.75-5.87,2.23-12.24,1.03-18.9c-2.71-15.01-12.42-22.37-19.51-27.75c-1.28-0.97-2.48-1.88-3.64-2.82c-3.2-2.6-6-5.66-8.31-9.07
			c-4.61-6.81-7.15-15.12-7.15-23.4v-82.32c0-23.07,18.77-41.84,41.84-41.84H314.54 M314.54,98.92H134.22
			c-31.94,0-57.84,25.9-57.84,57.84c0,0,0,82.31,0,82.32c0,11.49,3.46,22.85,9.91,32.37c3.18,4.7,7.06,8.93,11.46,12.51
			c7.75,6.3,15.55,10.24,17.49,21c2.74,15.18-9.65,29.52-23.84,33.05c3.36,1.71,6.05,2.83,9.25,3.63c3.24,0.81,6.53,1.18,9.82,1.18
			c14.24,0,28.44-7.02,38.82-16.01c10.54-9.13,17.36-28.43,32.94-29.89h132.31c31.94,0,57.84-25.9,57.84-57.84v-82.32
			C372.38,124.82,346.49,98.92,314.54,98.92L314.54,98.92z"
			/>
		</g>
	</g>
</svg>
